<svg preserveAspectRatio="none" overflow="visible" style="display: block;" width="22" height="22" viewBox="0 0 22 22" fill="none" xmlns="http://www.w3.org/2000/svg">
<g id="phone" clip-path="url(#clip0_0_12)">
<path id="Vector" d="M13.2842 15.244C13.0821 15.2945 12.8688 15.2746 12.6795 15.1877C10.1332 13.938 8.07256 11.8799 6.81967 9.3352C6.72688 9.14486 6.70284 8.92827 6.75164 8.72222C6.80043 8.51617 6.91906 8.33337 7.08735 8.20486L7.51639 7.88308C7.7441 7.7123 7.92892 7.49085 8.05622 7.23626C8.18351 6.98167 8.24978 6.70094 8.24978 6.4163V3.66608C8.24978 3.17981 8.05661 2.71346 7.71277 2.36961C7.36892 2.02577 6.90257 1.8326 6.4163 1.8326H3.66608C3.17981 1.8326 2.71346 2.02577 2.36961 2.36961C2.02577 2.71346 1.8326 3.17981 1.8326 3.66608C1.8326 8.0425 3.57113 12.2397 6.66573 15.3343C9.76032 18.4289 13.9575 20.1674 18.3339 20.1674C18.8202 20.1674 19.2865 19.9742 19.6304 19.6304C19.9742 19.2865 20.1674 18.8202 20.1674 18.3339V15.5837C20.1674 15.0974 19.9742 14.6311 19.6304 14.2872C19.2865 13.9434 18.8202 13.7502 18.3339 13.7502H15.5837C15.2991 13.7502 15.0183 13.8165 14.7637 13.9438C14.5092 14.0711 14.2877 14.2559 14.1169 14.4836L13.7915 14.9099C13.6653 15.0757 13.4864 15.1935 13.2842 15.244Z" stroke="#163300" stroke-width="2" stroke-linecap="round"/>
</g>
<defs>
<clipPath id="clip0_0_12">
<rect width="22" height="22" fill="white"/>
</clipPath>
</defs>
</svg>
